<?xml version="1.0" encoding="UTF-8" standalone="no"?>
<svg width="2466px" height="764px" viewBox="0 0 2466 764" version="1.1" xmlns="http://www.w3.org/2000/svg" xmlns:xlink="http://www.w3.org/1999/xlink">
    <!-- Generator: Sketch 3.8.3 (29802) - http://www.bohemiancoding.com/sketch -->
    <title>logo_claim_block copy@2x</title>
    <desc>Created with Sketch.</desc>
    <defs>
        <linearGradient x1="27.4523653%" y1="0%" x2="75.879281%" y2="100%" id="linearGradient-1">
            <stop stop-color="#FF824C" offset="0%"></stop>
            <stop stop-color="#FF4D00" offset="100%"></stop>
        </linearGradient>
        <linearGradient x1="73.3838731%" y1="0%" x2="13.5221938%" y2="134.484858%" id="linearGradient-2">
            <stop stop-color="#2BC3FF" offset="0%"></stop>
            <stop stop-color="#0069C6" offset="100%"></stop>
        </linearGradient>
    </defs>
    <g id="Page-1" stroke="none" stroke-width="1" fill="none" fill-rule="evenodd">
        <g id="logo_claim_block-copy">
            <g id="logo" transform="translate(253.000000, 191.000000)">
                <g id="Word" transform="translate(0.470160, 0.015392)" fill="#000000">
                    <path d="M1762.8301,132.450946 C1761.38004,132.931197 1759.52513,133.17132 1757.26535,133.17132 L1750.28004,133.17132 L1750.28004,0.987532182 L1703.2051,0.987532182 L1703.2051,228.513767 L1750.28004,228.513767 L1750.28004,167.305079 L1759.39131,167.305079 C1760.80388,167.305079 1762.05219,167.387273 1763.13625,167.551663 L1794.94863,221.615157 C1796.3814,224.218455 1797.96269,226.07554 1800.24617,227.107882 C1802.52966,228.140225 1805.23845,228.656388 1808.37264,228.656388 L1849.86902,228.656388 L1810.64706,161.868661 C1807.71118,156.874284 1800.21808,149.764355 1800.18359,149.741155 C1800.21808,149.717955 1807.71118,142.608026 1810.64706,137.613649 L1849.86902,70.8259221 L1808.37264,70.8259221 C1805.23845,70.8259221 1802.52966,71.3420855 1800.24617,72.3744278 C1797.96269,73.4067702 1796.3814,75.2638547 1794.94863,77.8671528 L1762.8301,132.450946 Z M51.3268648,70.9020733 L51.3268648,228.513767 L4.25192963,228.513767 L4.25192963,70.9020733 L51.3268648,70.9020733 Z M54.5158121,38.3006188 C52.9972582,41.5937115 50.9219323,44.4814571 48.2897722,46.9639424 C45.6576122,49.4464276 42.5952411,51.4222536 39.1025672,52.8914796 C35.6098932,54.3607055 31.889492,55.0953075 27.9412519,55.0953075 C24.0942487,55.0953075 20.5003917,54.3607055 17.1595732,52.8914796 C13.8187546,51.4222536 10.8576189,49.4464276 8.27607732,46.9639424 C5.69453571,44.4814571 3.66982756,41.5937115 2.20189213,38.3006188 C0.733956704,35.0075261 2.57927013e-12,31.4865029 2.57927013e-12,27.7374436 C2.57927013e-12,23.8870583 0.733956704,20.2900418 2.20189213,16.9462861 C3.66982756,13.6025305 5.69453571,10.6641226 8.27607732,8.13097443 C10.8576189,5.59782622 13.8187546,3.62200025 17.1595732,2.20343725 C20.5003917,0.784874245 24.0942487,0.0756033843 27.9412519,0.0756033843 C31.889492,0.0756033843 35.6098932,0.784874245 39.1025672,2.20343725 C42.5952411,3.62200025 45.6576122,5.59782622 48.2897722,8.13097443 C50.9219323,10.6641226 52.9972582,13.6025305 54.5158121,16.9462861 C56.034366,20.2900418 56.7936315,23.8870583 56.7936315,27.7374436 C56.7936315,31.4865029 56.034366,35.0075261 54.5158121,38.3006188 Z M80.854154,228.513767 L80.854154,70.9020733 L110.010243,70.9020733 C112.946114,70.9020733 115.401072,71.560682 117.375192,72.8779191 C119.349312,74.1951561 120.741299,76.1709821 121.551195,78.8054562 L124.284578,87.9247442 C127.321686,85.0876182 130.459983,82.4531836 133.699565,80.0213613 C136.939147,77.589539 140.406459,75.5377197 144.101607,73.8658419 C147.796755,72.1939641 151.795554,70.8767468 156.098123,69.9141505 C160.400692,68.9515541 165.08283,68.4702632 170.144676,68.4702632 C178.749815,68.4702632 186.367779,69.9647982 192.998798,72.9539131 C199.629817,75.943028 205.223073,80.0973288 209.778735,85.41694 C214.334396,90.7365513 217.7764,97.0693268 220.104849,104.415457 C222.433299,111.761586 223.597506,119.740884 223.597506,128.353588 L223.597506,228.513767 L176.522571,228.513767 L176.522571,128.353588 C176.522571,120.652817 174.750951,114.649346 171.207659,110.342994 C167.664366,106.036642 162.450743,103.883498 155.566632,103.883498 C150.403549,103.883498 145.544249,104.998067 140.988587,107.227237 C136.432926,109.456408 132.079803,112.445478 127.929089,116.194537 L127.929089,228.513767 L80.854154,228.513767 Z M308.062425,230.945577 C300.570893,230.945577 293.965283,229.85634 288.245396,227.677832 C282.52551,225.499325 277.716828,222.408931 273.819206,218.406556 C269.921585,214.404182 266.960449,209.565942 264.935711,203.89169 C262.910972,198.217438 261.898618,191.884662 261.898618,184.893173 L261.898618,103.427534 L248.535411,103.427534 C246.105724,103.427534 244.030399,102.64227 242.309371,101.071718 C240.588343,99.5011658 239.727842,97.1960355 239.727842,94.1562577 L239.727842,75.7656936 L264.783856,70.9020733 L274.046988,32.4490757 C275.261832,27.5854311 278.703835,25.1536453 284.373103,25.1536453 L308.973553,25.1536453 L308.973553,71.2060496 L347.24092,71.2060496 L347.24092,103.427534 L308.973553,103.427534 L308.973553,181.701422 C308.973553,185.349156 309.859363,188.363557 311.631009,190.744716 C313.402655,193.125875 315.95885,194.316437 319.299668,194.316437 C321.020696,194.316437 322.4633,194.13912 323.627525,193.784479 C324.79175,193.429838 325.804104,193.02454 326.664618,192.568574 C327.525131,192.112607 328.335015,191.707309 329.094292,191.352669 C329.853569,190.998028 330.739378,190.82071 331.751748,190.82071 C333.169065,190.82071 334.307963,191.150015 335.168477,191.808633 C336.028991,192.467252 336.914801,193.505827 337.825933,194.92439 L352.100268,217.266645 C346.026053,221.826312 339.192663,225.246011 331.599893,227.525844 C324.007124,229.805678 316.16138,230.945577 308.062425,230.945577 Z M433.258131,68.4702632 C443.685535,68.4702632 453.226972,70.0914537 461.882729,73.3338835 C470.538486,76.5763132 477.979289,81.2878982 484.20536,87.4687798 C490.431431,93.6496615 495.29073,101.223661 498.783404,110.191006 C502.276078,119.15835 504.022389,129.316122 504.022389,140.664626 C504.022389,144.211034 503.870536,147.09878 503.566825,149.32795 C503.263114,151.55712 502.706319,153.330298 501.896424,154.647535 C501.086529,155.964772 499.998248,156.876691 498.631549,157.383321 C497.264851,157.889951 495.51854,158.143262 493.392565,158.143262 L402.583496,158.143262 C404.10205,171.315632 408.100849,180.865458 414.580012,186.793025 C421.059175,192.720592 429.411096,195.68433 439.636026,195.68433 C445.10282,195.68433 449.810266,195.025722 453.758506,193.708485 C457.706746,192.391248 461.224677,190.922044 464.312403,189.300829 C467.400129,187.679614 470.234721,186.21041 472.816262,184.893173 C475.397804,183.575936 478.105851,182.917327 480.940485,182.917327 C484.686251,182.917327 487.520843,184.285207 489.444344,187.021007 L503.111261,203.89169 C498.251889,209.464616 493.012956,213.998883 487.394307,217.494628 C481.775657,220.990372 476.005239,223.726131 470.082879,225.701987 C464.160519,227.677842 458.238248,229.045722 452.315887,229.805666 C446.393527,230.565611 440.749653,230.945577 435.384096,230.945577 C424.349271,230.945577 413.997951,229.147069 404.329824,225.549999 C394.661698,221.952928 386.208541,216.608066 378.970101,209.515251 C371.731661,202.422436 366.01186,193.607212 361.810528,183.069315 C357.609196,172.531419 355.508561,160.271165 355.508561,146.288187 C355.508561,135.750291 357.305489,125.769836 360.8994,116.346525 C364.493311,106.923214 369.656317,98.6652744 376.388572,91.5724594 C383.120828,84.4796444 391.270278,78.8561397 400.837168,74.7017767 C410.404057,70.5474136 421.210937,68.4702632 433.258131,68.4702632 Z M413.061466,108.671124 C407.999619,113.788084 404.658851,121.159434 403.03906,130.785398 L461.806802,130.785398 C461.806802,127.036338 461.325934,123.38866 460.364183,119.842252 C459.402432,116.295845 457.833283,113.129457 455.656689,110.342994 C453.480095,107.556531 450.620195,105.302063 447.076903,103.579522 C443.53361,101.856981 439.231105,100.995724 434.169259,100.995724 C425.159173,100.995724 418.123312,103.554165 413.061466,108.671124 Z M843.577381,228.513767 C839.122957,228.513767 835.756879,227.905821 833.479048,226.68991 C831.201218,225.473998 829.303054,222.940888 827.7845,219.090503 L824.443698,210.427179 C820.495458,213.770935 816.69913,216.709343 813.054601,219.242491 C809.410071,221.775639 805.639052,223.928783 801.741431,225.701987 C797.843809,227.47519 793.693157,228.792408 789.289351,229.653678 C784.885545,230.514949 780.000936,230.945577 774.635379,230.945577 C767.447558,230.945577 760.917874,230.008327 755.046132,228.133797 C749.17439,226.259267 744.188547,223.498177 740.088451,219.850444 C735.988356,216.20271 732.824749,211.668443 730.597537,206.247506 C728.370324,200.826569 727.256735,194.569786 727.256735,187.476971 C727.256735,181.904045 728.674031,176.179216 731.508665,170.302312 C734.343298,164.425408 739.253216,159.080546 746.238564,154.267564 C753.223912,149.454583 762.638804,145.426937 774.483525,142.184508 C786.328245,138.942078 801.260468,137.118239 819.280641,136.712935 L819.280641,130.025457 C819.280641,120.804798 817.382477,114.142718 813.586092,110.039018 C809.789707,105.935317 804.398922,103.883498 797.413574,103.883498 C791.845543,103.883498 787.28995,104.491445 783.746657,105.707356 C780.203365,106.923267 777.039758,108.291146 774.255743,109.811035 C771.471727,111.330924 768.76368,112.698804 766.13152,113.914715 C763.49936,115.130626 760.361062,115.738573 756.716533,115.738573 C753.476951,115.738573 750.718287,114.953308 748.440456,113.382756 C746.162625,111.812205 744.365696,109.86171 743.049616,107.531213 L734.545757,92.7883645 C744.062028,84.3783124 754.615819,78.1215302 766.207447,74.0178301 C777.799075,69.91413 790.225722,67.8623107 803.487759,67.8623107 C813.00403,67.8623107 821.583731,69.4075079 829.227119,72.4979487 C836.870507,75.5883896 843.349573,79.8946769 848.664511,85.41694 C853.97945,90.9392031 858.054175,97.4999586 860.888809,105.099403 C863.723443,112.698848 865.140739,121.007449 865.140739,130.025457 L865.140739,228.513767 L843.577381,228.513767 Z M789.517133,199.78801 C795.591349,199.78801 800.906208,198.724104 805.461869,196.596259 C810.017531,194.468415 814.623742,191.023385 819.280641,186.261066 L819.280641,164.374775 C809.865606,164.780079 802.121098,165.590674 796.046882,166.806585 C789.972667,168.022496 785.163985,169.542362 781.620692,171.366229 C778.0774,173.190096 775.622441,175.267246 774.255743,177.597743 C772.889044,179.928239 772.205705,182.461349 772.205705,185.197149 C772.205705,190.567424 773.673619,194.341758 776.60949,196.520265 C779.54536,198.698773 783.847865,199.78801 789.517133,199.78801 Z M1007.91784,108.291154 C1006.50052,110.013695 1005.13384,111.381574 1003.81776,112.394834 C1002.50168,113.408093 1000.62883,113.914715 998.19914,113.914715 C995.870691,113.914715 993.770056,113.357431 991.897173,112.242845 C990.02429,111.12826 987.923655,109.887036 985.595206,108.519136 C983.266756,107.151236 980.5334,105.910012 977.395056,104.795427 C974.256711,103.680842 970.359148,103.123558 965.702249,103.123558 C959.931744,103.123558 954.9459,104.187464 950.744568,106.315308 C946.543236,108.443153 943.075923,111.482885 940.342526,115.434596 C937.609129,119.386308 935.584421,124.224548 934.268341,129.949463 C932.952261,135.674378 932.294231,142.133809 932.294231,149.32795 C932.294231,164.425513 935.204748,176.027158 941.025872,184.133232 C946.846995,192.239307 954.869901,196.292283 965.094831,196.292283 C970.561625,196.292283 974.889438,195.608343 978.078401,194.240443 C981.267365,192.872543 983.975412,191.352677 986.202624,189.680799 C988.429836,188.008921 990.479853,186.463724 992.352737,185.045161 C994.22562,183.626598 996.579343,182.917327 999.413977,182.917327 C1003.15974,182.917327 1005.99433,184.285207 1007.91784,187.021007 L1021.58475,203.89169 C1016.72538,209.464616 1011.61299,213.998883 1006.24744,217.494628 C1000.88188,220.990372 995.389857,223.726131 989.771208,225.701987 C984.152558,227.677842 978.508684,229.045722 972.839417,229.805666 C967.170149,230.565611 961.652819,230.945577 956.287262,230.945577 C946.669754,230.945577 937.482641,229.121738 928.725647,225.474005 C919.968653,221.826271 912.274762,216.532071 905.643743,209.591245 C899.012724,202.650419 893.748483,194.113837 889.850861,183.981244 C885.95324,173.848651 884.004458,162.297669 884.004458,149.32795 C884.004458,137.979446 885.700151,127.365714 889.091588,117.486436 C892.483025,107.607158 897.494178,99.0452455 904.125197,91.8004416 C910.756215,84.5556377 918.956283,78.8561397 928.725647,74.7017767 C938.49501,70.5474136 949.808067,68.4702632 962.665156,68.4702632 C975.016061,68.4702632 985.84825,70.4460892 995.162047,74.3978004 C1004.47584,78.3495116 1012.87838,84.1250029 1020.36992,91.7244475 L1007.91784,108.291154 Z M1100.92036,68.4702632 C1111.34776,68.4702632 1120.8892,70.0914537 1129.54496,73.3338835 C1138.20072,76.5763132 1145.64152,81.2878982 1151.86759,87.4687798 C1158.09366,93.6496615 1162.95296,101.223661 1166.44563,110.191006 C1169.93831,119.15835 1171.68462,129.316122 1171.68462,140.664626 C1171.68462,144.211034 1171.53276,147.09878 1171.22905,149.32795 C1170.92534,151.55712 1170.36855,153.330298 1169.55865,154.647535 C1168.74876,155.964772 1167.66048,156.876691 1166.29378,157.383321 C1164.92708,157.889951 1163.18077,158.143262 1161.05479,158.143262 L1070.24573,158.143262 C1071.76428,171.315632 1075.76308,180.865458 1082.24224,186.793025 C1088.7214,192.720592 1097.07333,195.68433 1107.29825,195.68433 C1112.76505,195.68433 1117.4725,195.025722 1121.42074,193.708485 C1125.36898,192.391248 1128.88691,190.922044 1131.97463,189.300829 C1135.06236,187.679614 1137.89695,186.21041 1140.47849,184.893173 C1143.06003,183.575936 1145.76808,182.917327 1148.60271,182.917327 C1152.34848,182.917327 1155.18307,184.285207 1157.10657,187.021007 L1170.77349,203.89169 C1165.91412,209.464616 1160.67519,213.998883 1155.05654,217.494628 C1149.43789,220.990372 1143.66747,223.726131 1137.74511,225.701987 C1131.82275,227.677842 1125.90048,229.045722 1119.97812,229.805666 C1114.05576,230.565611 1108.41188,230.945577 1103.04633,230.945577 C1092.0115,230.945577 1081.66018,229.147069 1071.99205,225.549999 C1062.32393,221.952928 1053.87077,216.608066 1046.63233,209.515251 C1039.39389,202.422436 1033.67409,193.607212 1029.47276,183.069315 C1025.27142,172.531419 1023.17079,160.271165 1023.17079,146.288187 C1023.17079,135.750291 1024.96772,125.769836 1028.56163,116.346525 C1032.15554,106.923214 1037.31855,98.6652744 1044.0508,91.5724594 C1050.78306,84.4796444 1058.93251,78.8561397 1068.4994,74.7017767 C1078.06629,70.5474136 1088.87317,68.4702632 1100.92036,68.4702632 Z M1101.83149,100.995724 C1092.8214,100.995724 1085.78554,103.554165 1080.72369,108.671124 C1075.66185,113.788084 1072.32108,121.159434 1070.70129,130.785398 L1129.46903,130.785398 C1129.46903,127.036338 1128.98816,123.38866 1128.02641,119.842252 C1127.06466,116.295845 1125.49551,113.129457 1123.31892,110.342994 C1121.14232,107.556531 1118.28242,105.302063 1114.73913,103.579522 C1111.19584,101.856981 1106.89333,100.995724 1101.83149,100.995724 Z M1176.274,70.9020733 L1213.93395,70.9020733 C1217.27477,70.9020733 1220.15998,71.6620064 1222.58966,73.1818953 C1225.01935,74.7017843 1226.48726,76.6776102 1226.99345,79.1094325 L1242.78633,149.783914 C1244.00117,155.154189 1245.11476,160.372396 1246.12713,165.438692 C1247.1395,170.504988 1248.05062,175.520547 1248.86052,180.485517 C1250.27783,175.520547 1251.77105,170.53032 1253.34023,165.514686 C1254.9094,160.499053 1256.45324,155.255514 1257.97179,149.783914 L1277.71289,78.9574444 C1278.32032,76.626948 1279.78823,74.6764532 1282.11668,73.1059013 C1284.44513,71.5353494 1287.12787,70.7500852 1290.16497,70.7500852 L1311.12091,70.7500852 C1314.46173,70.7500852 1317.32163,71.5353494 1319.7007,73.1059013 C1322.07977,74.6764532 1323.57299,76.626948 1324.18041,78.9574444 L1343.01039,149.783914 C1344.4277,155.154189 1345.87031,160.372396 1347.33824,165.438692 C1348.80618,170.504988 1350.19816,175.621871 1351.51424,180.789493 C1352.32414,175.723197 1353.31119,170.682308 1354.47541,165.666674 C1355.63963,160.651041 1356.87977,155.35684 1358.19585,149.783914 L1374.89986,79.1094325 C1375.40604,76.6776102 1376.84865,74.7017843 1379.22771,73.1818953 C1381.60678,71.6620064 1384.31483,70.9020733 1387.35194,70.9020733 L1423.18963,70.9020733 L1374.29244,228.513767 L1336.02507,228.513767 C1334.00033,228.513767 1332.27933,227.905821 1330.86202,226.68991 C1329.4447,225.473998 1328.33111,223.44751 1327.52121,220.610384 L1305.04673,142.03252 C1304.03436,138.486112 1303.07262,134.99042 1302.16149,131.545338 C1301.25036,128.100257 1300.44047,124.655227 1299.73182,121.210145 C1299.02316,124.756553 1298.23858,128.277576 1297.37807,131.773321 C1296.51756,135.269065 1295.53051,138.790088 1294.4169,142.336496 L1271.63871,220.610384 C1270.12016,225.879333 1266.77939,228.513767 1261.6163,228.513767 L1225.17119,228.513767 L1176.274,70.9020733 Z M1500.39927,68.4702632 C1510.82668,68.4702632 1520.36811,70.0914537 1529.02387,73.3338835 C1537.67963,76.5763132 1545.12043,81.2878982 1551.3465,87.4687798 C1557.57257,93.6496615 1562.43187,101.223661 1565.92455,110.191006 C1569.41722,119.15835 1571.16353,129.316122 1571.16353,140.664626 C1571.16353,144.211034 1571.01168,147.09878 1570.70797,149.32795 C1570.40426,151.55712 1569.84746,153.330298 1569.03757,154.647535 C1568.22767,155.964772 1567.13939,156.876691 1565.77269,157.383321 C1564.40599,157.889951 1562.65968,158.143262 1560.53371,158.143262 L1469.72464,158.143262 C1471.24319,171.315632 1475.24199,180.865458 1481.72115,186.793025 C1488.20032,192.720592 1496.55224,195.68433 1506.77717,195.68433 C1512.24396,195.68433 1516.95141,195.025722 1520.89965,193.708485 C1524.84789,192.391248 1528.36582,190.922044 1531.45354,189.300829 C1534.54127,187.679614 1537.37586,186.21041 1539.9574,184.893173 C1542.53895,183.575936 1545.24699,182.917327 1548.08163,182.917327 C1551.82739,182.917327 1554.66198,184.285207 1556.58549,187.021007 L1570.2524,203.89169 C1565.39303,209.464616 1560.1541,213.998883 1554.53545,217.494628 C1548.9168,220.990372 1543.14638,223.726131 1537.22402,225.701987 C1531.30166,227.677842 1525.37939,229.045722 1519.45703,229.805666 C1513.53467,230.565611 1507.89079,230.945577 1502.52524,230.945577 C1491.49041,230.945577 1481.13909,229.147069 1471.47097,225.549999 C1461.80284,221.952928 1453.34968,216.608066 1446.11124,209.515251 C1438.8728,202.422436 1433.153,193.607212 1428.95167,183.069315 C1424.75034,172.531419 1422.6497,160.271165 1422.6497,146.288187 C1422.6497,135.750291 1424.44663,125.769836 1428.04054,116.346525 C1431.63445,106.923214 1436.79746,98.6652744 1443.52971,91.5724594 C1450.26197,84.4796444 1458.41142,78.8561397 1467.97831,74.7017767 C1477.5452,70.5474136 1488.35208,68.4702632 1500.39927,68.4702632 Z M1501.3104,100.995724 C1492.30031,100.995724 1485.26445,103.554165 1480.20261,108.671124 C1475.14076,113.788084 1471.79999,121.159434 1470.1802,130.785398 L1528.94794,130.785398 C1528.94794,127.036338 1528.46708,123.38866 1527.50532,119.842252 C1526.54357,116.295845 1524.97442,113.129457 1522.79783,110.342994 C1520.62124,107.556531 1517.76134,105.302063 1514.21804,103.579522 C1510.67475,101.856981 1506.37225,100.995724 1501.3104,100.995724 Z M1589.75729,228.513767 L1589.75729,70.9020733 L1617.69854,70.9020733 C1620.02699,70.9020733 1621.97577,71.1047222 1623.54494,71.5100259 C1625.11411,71.9153296 1626.43017,72.5486071 1627.49316,73.4098775 C1628.55615,74.2711479 1629.36603,75.4110475 1629.92284,76.8296105 C1630.47964,78.2481735 1630.96051,79.9706885 1631.36545,81.997207 L1633.94698,96.7400559 C1639.71749,87.8233742 1646.19655,80.7813278 1653.38438,75.6137055 C1660.5722,70.4460831 1668.41794,67.8623107 1676.92184,67.8623107 C1684.10967,67.8623107 1689.88008,69.5848256 1694.23327,73.0299072 L1688.15909,107.683202 C1687.75414,109.811046 1686.94426,111.305581 1685.72941,112.166851 C1684.51457,113.028122 1682.8948,113.458751 1680.87006,113.458751 C1679.14904,113.458751 1677.12433,113.230771 1674.79588,112.774804 C1672.46743,112.318837 1669.5316,112.090857 1665.98831,112.090857 C1653.63741,112.090857 1643.91881,118.676944 1636.83222,131.849315 L1636.83222,228.513767 L1589.75729,228.513767 Z M522.662397,228.513767 L522.662397,70.9020733 L550.603649,70.9020733 C552.932099,70.9020733 554.88088,71.1047222 556.450053,71.5100259 C558.019225,71.9153296 559.335285,72.5486071 560.398273,73.4098775 C561.461261,74.2711479 562.271144,75.4110475 562.827947,76.8296105 C563.38475,78.2481735 563.865618,79.9706885 564.270566,81.997207 L566.852095,96.7400559 C572.622599,87.8233742 579.101666,80.7813278 586.289487,75.6137055 C593.477309,70.4460831 601.323053,67.8623107 609.826955,67.8623107 C617.014777,67.8623107 622.785195,69.5848256 627.138383,73.0299072 L621.064197,107.683202 C620.65925,109.811046 619.849366,111.305581 618.634523,112.166851 C617.41968,113.028122 615.799914,113.458751 613.775175,113.458751 C612.054147,113.458751 610.029439,113.230771 607.70099,112.774804 C605.372541,112.318837 602.436714,112.090857 598.893422,112.090857 C586.542517,112.090857 576.823917,118.676944 569.737333,131.849315 L569.737333,228.513767 L522.662397,228.513767 Z M635.84754,229.537898 L635.84754,71.5068462 L635.84754,62.4983128 C635.84754,53.4388385 637.296778,45.2447177 640.195297,37.9157047 C643.093817,30.5866917 647.263554,24.3265871 652.704634,19.1352029 C658.145715,13.9438187 664.781699,9.92310104 672.612786,7.07292933 C680.443874,4.22275762 689.342704,2.79769314 699.309542,2.79769314 C703.174235,2.79769314 706.733767,3.02672136 709.988244,3.48478467 C713.242722,3.94284798 716.649703,4.6808278 720.209288,5.69874627 L719.293971,28.7544843 C719.192268,30.3831539 718.785465,31.7318756 718.073548,32.80069 C717.361631,33.8695044 716.420897,34.7347221 715.251319,35.3963691 C714.081741,36.0580161 712.835905,36.5415201 711.513773,36.8468957 C710.191642,37.1522712 708.86953,37.3049567 707.547398,37.3049567 C703.377598,37.3049567 699.665515,37.712118 696.411037,38.5264527 C693.156559,39.3407875 690.43606,40.7912996 688.249458,42.8780324 C686.062855,44.9647653 684.410216,47.7131039 683.291489,51.1231308 C682.172762,54.5331577 681.613407,58.8337987 681.613407,64.0251829 L681.613407,71.5068462 L718.683759,71.5068462 L718.683759,103.876492 L683.138936,103.876492 L683.138936,229.537898 L635.84754,229.537898 Z" id="interfacewerk-13"></path>
                </g>
                <g id="Caret" transform="translate(1830.247334, 70.693860)">
                    <path d="M0.0797329895,79.0714507 C2.73571797,81.2278449 6.17971041,83.9622281 10.5576149,91.1901938 L45.7140143,150.936689 C47.1467869,153.539987 48.728081,155.397072 51.0115624,156.429414 C53.2950438,157.461757 56.003839,157.97792 59.1380291,157.97792 L100.634408,157.97792 L61.4124528,91.1901932 C58.4765703,86.1958157 50.9834722,79.085887 50.948977,79.0626871 C50.9834722,79.0394871 0.0840916563,79.0685235 0.0797329895,79.0714507 Z" id="Path-Copy" fill="url(#linearGradient-1)"></path>
                    <path d="M0.0797329895,79.0714507 C5.15027783,79.0626871 50.9834722,79.085887 50.948977,79.0626871 C50.9834722,79.0394871 58.4765703,71.9295584 61.4124528,66.935181 L100.634408,0.147454105 L59.1380291,0.147454105 C56.003839,0.147454105 53.2950438,0.663617531 51.0115624,1.69595987 C48.728081,2.72830221 47.1467869,4.58538676 45.7140143,7.18868483 L10.5576149,66.9351804 C6.17971041,74.1631461 0.0840916563,79.0685235 0.0797329895,79.0714507 Z" id="Path-Copy-2" fill="url(#linearGradient-2)"></path>
                </g>
            </g>
            <text id="designing-software-t" font-family="Lato-Regular, Lato" font-size="119" font-weight="normal" fill="#000000">
                <tspan x="248" y="541">designing software to empower users</tspan>
            </text>
        </g>
    </g>
</svg>